HIERARCHY
ROOT Hips
{
  OFFSET 51.7962 84.5984 36.2813
  CHANNELS 6 Xposition Yposition Zposition Zrotation Xrotation Yrotation
  JOINT spine
  {
    OFFSET 0 5.95438 0.342407
    CHANNELS 3 Zrotation Xrotation Yrotation
    JOINT spine1
    {
      OFFSET 0 8.85602 0
      CHANNELS 3 Zrotation Xrotation Yrotation
      JOINT spine2
      {
        OFFSET 0 8.48567 0
        CHANNELS 3 Zrotation Xrotation Yrotation
        JOINT Neck
        {
          OFFSET 0 21.7863 1.0387
          CHANNELS 3 Zrotation Xrotation Yrotation
          JOINT Head
          {
            OFFSET 0 6.5822 0
            CHANNELS 3 Zrotation Xrotation Yrotation
            End Site
            {
              OFFSET 0 15.9326 -5.25436
            }
          }
        }
        JOINT RightShoulder
        {
          OFFSET -3.57307 9.16386 -0.497525
          CHANNELS 3 Zrotation Xrotation Yrotation
          JOINT RightArm
          {
            OFFSET 0 12.0192 0
            CHANNELS 3 Zrotation Xrotation Yrotation
            JOINT RightArmRoll
            {
              OFFSET 0 6.06754 0
              CHANNELS 3 Zrotation Xrotation Yrotation
              JOINT RightForeArm
              {
                OFFSET 0 17.6726 0
                CHANNELS 3 Zrotation Xrotation Yrotation
                JOINT RightForeArmRoll
                {
                  OFFSET 0 6.80872 0
                  CHANNELS 3 Zrotation Xrotation Yrotation
                  JOINT RightHand
                  {
                    OFFSET 0 13.6636 0
                    CHANNELS 3 Zrotation Xrotation Yrotation
                    End Site
                    {
                      OFFSET 0 0 0
                    }
                  }
                }
              }
            }
          }
        }
        JOINT LeftShoulder
        {
          OFFSET 3.57307 9.16386 -0.497525
          CHANNELS 3 Zrotation Xrotation Yrotation
          JOINT LeftArm
          {
            OFFSET 0 12.0192 0
            CHANNELS 3 Zrotation Xrotation Yrotation
            JOINT LeftArmRoll
            {
              OFFSET 0 6.06755 0
              CHANNELS 3 Zrotation Xrotation Yrotation
              JOINT LeftForeArm
              {
                OFFSET 0 17.6726 0
                CHANNELS 3 Zrotation Xrotation Yrotation
                JOINT LeftForeArmRoll
                {
                  OFFSET 0 6.80872 0
                  CHANNELS 3 Zrotation Xrotation Yrotation
                  JOINT LeftHand
                  {
                    OFFSET 0 13.6636 0
                    CHANNELS 3 Zrotation Xrotation Yrotation
                    End Site
                    {
                      OFFSET 0 0 0
                    }
                  }
                }
              }
            }
          }
        }
      }
    }
  }
  JOINT RightUpLeg
  {
    OFFSET -5.27774 -0.967797 -0.811858
    CHANNELS 3 Zrotation Xrotation Yrotation
    JOINT RightUpLegRoll
    {
      OFFSET 0 16.0214 0
      CHANNELS 3 Zrotation Xrotation Yrotation
      JOINT RightLeg
      {
        OFFSET 0 -19.8401 0
        CHANNELS 3 Zrotation Xrotation Yrotation
        JOINT RightLegRoll
        {
          OFFSET 0 19.905 0
          CHANNELS 3 Zrotation Xrotation Yrotation
          JOINT RightFoot
          {
            OFFSET 0 16.5675 0
            CHANNELS 3 Zrotation Xrotation Yrotation
            JOINT RightToeBase
            {
              OFFSET 0 13.8496 0
              CHANNELS 3 Zrotation Xrotation Yrotation
              End Site
              {
                OFFSET 0.00587034 6.70727 -0.773117
              }
            }
          }
        }
      }
    }
  }
  JOINT LeftUpLeg
  {
    OFFSET 5.27774 -0.967797 -0.811858
    CHANNELS 3 Zrotation Xrotation Yrotation
    JOINT LeftUpLegRoll
    {
      OFFSET 0 16.0215 0
      CHANNELS 3 Zrotation Xrotation Yrotation
      JOINT LeftLeg
      {
        OFFSET 0 19.84 0
        CHANNELS 3 Zrotation Xrotation Yrotation
        JOINT LeftLegRoll
        {
          OFFSET 0 20.089 0
          CHANNELS 3 Zrotation Xrotation Yrotation
          JOINT LeftFoot
          {
            OFFSET 0 16.3835 0
            CHANNELS 3 Zrotation Xrotation Yrotation
            JOINT LeftToeBase
            {
              OFFSET 0 13.8496 0
              CHANNELS 3 Zrotation Xrotation Yrotation
              End Site
              {
                OFFSET -0.0263083 6.70727 -0.773117
              }
            }
          }
        }
      }
    }
  }
}
MOTION
Frames: 9
Frame Time: 0.00208333
50.0825 54.9203 -7.7738 -0.909642 -19.3237 4.73349 -0.358149 -0.40888 -0.33733 -0.716363 3.18458 -0.632548 -0.709602 4.82954 -0.628066 7.33862 25.2858 -3.72862 -1.2115 9.59729 -0.514666 95.3232 -0.44559 -3.95558 82.0637 24.3368 12.0934 -5.41128e-007 -1.99136e-006 -3.47127e-007 -3.63741 -0.0138168 -1.99165 -6.83092e-006 7.88373e-006 -3.01161 8.0301 -4.95136 0.697635 -72.8607 -6.97994 4.83129 -104.142 28.667 7.84223 -1.34704e-005 1.12988e-005 1.07827e-005 3.65101 -0.0296938 1.99266 7.31411e-007 -2.98241e-006 3.01161 -8.03009 -4.95138 -0.697616 169.59 73.1009 10.5185 180 1.52483e-005 177.88 -36.2991 78.5762 37.9401 -5.50961e-007 1.71323e-006 2.8215 -17.0282 64.1529 16.7305 8.13649 25.2327 -3.48773 -173.233 74.527 -4.14826 4.61223e-006 2.57698e-005 -2.39493 144.127 -78.0517 140.879 -6.45113e-007 2.87008e-007 -2.77134 15.1584 58.3887 -13.6374 -8.13649 25.2327 3.48773 
50.0843 54.9156 -7.76786 -0.898685 -19.3009 4.74369 -0.359936 -0.413204 -0.337371 -0.719961 3.17611 -0.632451 -0.713202 4.82107 -0.627783 7.34331 25.3051 -3.73337 -1.20756 9.57784 -0.516469 95.298 -0.451398 -3.95471 82.0725 24.3023 12.0936 -5.41128e-007 -1.99136e-006 -3.47127e-007 -3.63741 -0.0138168 -1.99165 -6.83092e-006 7.88373e-006 -3.01161 8.0301 -4.95136 0.697635 -72.847 -6.98871 4.83495 -104.167 28.6688 7.8664 -1.34704e-005 1.12988e-005 1.07827e-005 3.65101 -0.0296938 1.99266 7.31411e-007 -2.98241e-006 3.01161 -8.03009 -4.95138 -0.697616 169.535 73.1218 10.5682 180 1.52484e-005 177.881 -36.2864 78.5784 37.9268 -5.50961e-007 1.71323e-006 2.82089 -17.0299 64.1557 16.7334 8.13649 25.2327 -3.48773 -173.274 74.5566 -4.11679 4.61223e-006 2.57698e-005 -2.39408 144.156 -78.0504 140.908 -6.45113e-007 2.87007e-007 -2.77092 15.1558 58.3843 -13.6361 -8.13649 25.2327 3.48773 
50.0574 54.894 -7.78856 -0.887296 -19.2775 4.75422 -0.361819 -0.417617 -0.337414 -0.723751 3.16748 -0.632342 -0.716993 4.81244 -0.627501 7.34816 25.3243 -3.73831 -1.20323 9.55757 -0.518393 95.2726 -0.457087 -3.95379 82.0813 24.2669 12.0941 -5.41128e-007 -1.99136e-006 -3.47127e-007 -3.63741 -0.0138168 -1.99165 -6.83092e-006 7.88373e-006 -3.01161 8.0301 -4.95136 0.697635 -72.8325 -6.998 4.83883 -104.194 28.6708 7.892 -1.34704e-005 1.12988e-005 1.07827e-005 3.65101 -0.0296938 1.99266 7.31411e-007 -2.98241e-006 3.01161 -8.03009 -4.95138 -0.697616 169.478 73.1431 10.6201 180 1.52484e-005 177.882 -36.2736 78.5809 37.9134 -5.50961e-007 1.71323e-006 2.82026 -17.0318 64.1586 16.7365 8.13649 25.2327 -3.48773 -173.317 74.5869 -4.08418 4.61223e-006 2.57698e-005 -2.39321 144.186 -78.0492 140.938 -6.45113e-007 2.87007e-007 -2.77051 15.1531 58.3797 -13.6348 -8.13649 25.2327 3.48773 
50.0562 54.8948 -7.78961 -0.875608 -19.2535 4.765 -0.36377 -0.422093 -0.337458 -0.727676 3.15872 -0.632224 -0.720918 4.80368 -0.627218 7.35313 25.3435 -3.74338 -1.19864 9.53672 -0.520403 95.2471 -0.462693 -3.95283 82.0901 24.2308 12.0947 -5.41128e-007 -1.99136e-006 -3.47127e-007 -3.63741 -0.0138168 -1.99165 -6.83092e-006 7.88373e-006 -3.01161 8.0301 -4.95136 0.697635 -72.8176 -7.00766 4.84286 -104.222 28.6729 7.91859 -1.34704e-005 1.12988e-005 1.07827e-005 3.65101 -0.0296938 1.99266 7.31411e-007 -2.98242e-006 3.01161 -8.03009 -4.95138 -0.697616 169.42 73.1647 10.6737 180 1.52484e-005 177.883 -36.2609 78.5835 37.8999 -5.50961e-007 1.71323e-006 2.81961 -17.0336 64.1616 16.7396 8.13649 25.2327 -3.48773 -173.361 74.6178 -4.05074 4.61223e-006 2.57698e-005 -2.39233 144.216 -78.0482 140.968 -6.45113e-007 2.87007e-007 -2.7701 15.1503 58.375 -13.6334 -8.13649 25.2327 3.48773 
50.1158 54.9377 -7.74858 -0.863754 -19.2294 4.77592 -0.365758 -0.426604 -0.337503 -0.731677 3.1499 -0.6321 -0.724921 4.79485 -0.626935 7.35817 25.3627 -3.74852 -1.19389 9.51555 -0.522461 95.2214 -0.468251 -3.95185 82.0989 24.1943 12.0955 -5.41128e-007 -1.99136e-006 -3.47127e-007 -3.63741 -0.0138168 -1.99165 -6.83092e-006 7.88373e-006 -3.01161 8.0301 -4.95136 0.697635 -72.8022 -7.01751 4.84697 -104.25 28.6751 7.94575 -1.34704e-005 1.12988e-005 1.07827e-005 3.65101 -0.0296938 1.99266 7.31411e-007 -2.98242e-006 3.01161 -8.03009 -4.95138 -0.697616 169.36 73.1865 10.7282 180 1.52484e-005 177.885 -36.2481 78.5862 37.8865 -5.50961e-007 1.71323e-006 2.81896 -17.0356 64.1646 16.7429 8.13649 25.2327 -3.48773 -173.405 74.649 -4.01676 4.61223e-006 2.57698e-005 -2.39144 144.246 -78.0471 140.999 -6.45113e-007 2.87007e-007 -2.76969 15.1476 58.3702 -13.632 -8.13649 25.2327 3.48773 
50.0949 54.9245 -7.76265 -0.851865 -19.2051 4.78687 -0.367756 -0.431124 -0.337547 -0.735698 3.14105 -0.631975 -0.728942 4.78601 -0.626652 7.36323 25.3819 -3.75368 -1.1891 9.4943 -0.52453 95.1958 -0.473798 -3.95086 82.1076 24.1577 12.0963 -5.41128e-007 -1.99136e-006 -3.47127e-007 -3.63741 -0.0138168 -1.99165 -6.83092e-006 7.88373e-006 -3.01161 8.0301 -4.95136 0.697635 -72.7869 -7.02742 4.85111 -104.279 28.6773 7.97305 -1.34704e-005 1.12988e-005 1.07827e-005 3.65101 -0.0296938 1.99266 7.31411e-007 -2.98242e-006 3.01161 -8.03009 -4.95138 -0.697616 169.299 73.2084 10.7831 180 1.52484e-005 177.886 -36.2354 78.5889 37.873 -5.50961e-007 1.71323e-006 2.8183 -17.0375 64.1676 16.7461 8.13649 25.2327 -3.48773 -173.45 74.6803 -3.98255 4.61223e-006 2.57698e-005 -2.39055 144.277 -78.0461 141.029 -6.45113e-007 2.87007e-007 -2.76928 15.1448 58.3655 -13.6306 -8.13649 25.2327 3.48773 
50.0063 54.8932 -7.75266 -0.840075 -19.181 4.79775 -0.369735 -0.435626 -0.337592 -0.73968 3.13225 -0.631853 -0.732925 4.77721 -0.62637 7.36826 25.4011 -3.75881 -1.18439 9.47321 -0.526576 95.1701 -0.479368 -3.94989 82.1164 24.1213 12.097 -5.41128e-007 -1.99136e-006 -3.47127e-007 -3.63741 -0.0138168 -1.99165 -6.83092e-006 7.88373e-006 -3.01161 8.0301 -4.95136 0.697635 -72.7716 -7.03723 4.8552 -104.308 28.6794 8.00007 -1.34704e-005 1.12988e-005 1.07827e-005 3.65101 -0.0296938 1.99266 7.31411e-007 -2.98242e-006 3.01161 -8.03009 -4.95138 -0.697616 169.24 73.2301 10.8378 180 1.52484e-005 177.887 -36.2226 78.5916 37.8596 -5.50961e-007 1.71323e-006 2.81764 -17.0394 64.1707 16.7493 8.13649 25.2327 -3.48773 -173.495 74.7115 -3.9484 4.61223e-006 2.57698e-005 -2.38966 144.307 -78.045 141.06 -6.45113e-007 2.87007e-007 -2.76887 15.142 58.3607 -13.6292 -8.13649 25.2327 3.48773 
50.0253 54.9019 -7.75308 -0.828513 -19.1572 4.80845 -0.371666 -0.440083 -0.337635 -0.743566 3.12352 -0.631738 -0.736812 4.76848 -0.626087 7.37322 25.4203 -3.76385 -1.17988 9.45253 -0.52856 95.1446 -0.484998 -3.94894 82.1252 24.0854 12.0976 -5.41128e-007 -1.99136e-006 -3.47127e-007 -3.63741 -0.0138168 -1.99165 -6.83092e-006 7.88373e-006 -3.01161 8.0301 -4.95136 0.697635 -72.7568 -7.04678 4.85919 -104.335 28.6815 8.02639 -1.34704e-005 1.12988e-005 1.07827e-005 3.65101 -0.0296938 1.99266 7.31411e-007 -2.98242e-006 3.01161 -8.03009 -4.95138 -0.697616 169.181 73.2516 10.8915 180 1.52484e-005 177.889 -36.2098 78.5942 37.8461 -5.50961e-007 1.71323e-006 2.817 -17.0412 64.1736 16.7525 8.13649 25.2327 -3.48773 -173.539 74.7422 -3.91464 4.61223e-006 2.57698e-005 -2.38878 144.337 -78.0439 141.09 -6.45113e-007 2.87007e-007 -2.76846 15.1393 58.356 -13.6279 -8.13649 25.2327 3.48773 
50.1061 54.9393 -7.77215 -0.817311 -19.134 4.81887 -0.373521 -0.44447 -0.337678 -0.747298 3.11494 -0.631632 -0.740545 4.7599 -0.625805 7.37804 25.4396 -3.76875 -1.17568 9.43251 -0.530447 95.1193 -0.490723 -3.94803 82.134 24.0503 12.098 -5.41128e-007 -1.99136e-006 -3.47127e-007 -3.63741 -0.0138168 -1.99165 -6.83092e-006 7.88373e-006 -3.01161 8.0301 -4.95136 0.697635 -72.7426 -7.05591 4.863 -104.362 28.6833 8.05156 -1.34704e-005 1.12988e-005 1.07827e-005 3.65101 -0.0296938 1.99266 7.31411e-007 -2.98242e-006 3.01161 -8.03009 -4.95138 -0.697616 169.124 73.2727 10.9435 180 1.52484e-005 177.89 -36.1971 78.5966 37.8327 -5.50961e-007 1.71323e-006 2.81637 -17.043 64.1765 16.7555 8.13649 25.2327 -3.48773 -173.583 74.7723 -3.88157 4.61223e-006 2.57698e-005 -2.38792 144.366 -78.0427 141.12 -6.45113e-007 2.87007e-007 -2.76804 15.1366 58.3515 -13.6265 -8.13649 25.2327 3.48773 
